<?xml version="1.0" encoding="utf-8"?>
<!-- Generator: Adobe Illustrator 15.1.0, SVG Export Plug-In . SVG Version: 6.00 Build 0)  -->
<!DOCTYPE svg PUBLIC "-//W3C//DTD SVG 1.1//EN" "http://www.w3.org/Graphics/SVG/1.1/DTD/svg11.dtd">
<svg version="1.1" id="Calque_1" xmlns="http://www.w3.org/2000/svg" xmlns:xlink="http://www.w3.org/1999/xlink" x="0px" y="0px"
	 width="500px" height="500px" viewBox="0 0 500 500" enable-background="new 0 0 500 500" xml:space="preserve">
<g>
	<path fill="#0066FF" d="M151.383,161.01v27.036h-36.83V161.01L82.137,91.488h38.071l12.139,36.14h1.242l12.138-36.14h38.072
		L151.383,161.01z"/>
	<path fill="#0066FF" d="M301.457,139.767c0,34.348-23.588,50.9-58.487,50.9c-34.899,0-58.487-16.553-58.487-50.9
		c0-34.485,23.587-50.9,58.487-50.9C277.869,88.867,301.457,105.282,301.457,139.767z M261.454,139.767
		c0-9.932-6.897-16.415-18.484-16.415c-11.587,0-18.484,6.483-18.484,16.415c0,9.932,6.897,16.277,18.484,16.277
		C254.557,156.043,261.454,149.699,261.454,139.767z"/>
	<path fill="#0066FF" d="M415.112,91.488v49.658c0,32.692-17.519,49.521-51.59,49.521c-34.209,0-51.729-16.829-51.729-49.521V91.488
		h36.831v49.658c0,10.898,6.208,15.174,14.897,15.174c8.69,0,14.898-4.276,14.898-15.174V91.488H415.112z"/>
	<path fill="#0066FF" d="M-0.212,321.013c9.932,0,34.761,0,34.761,0c0,6.483,6.069,8.552,10.897,8.552
		c5.104,0,7.587-1.655,7.587-4.689c0-4.553-6.069-5.38-16.829-8.414c-22.76-6.346-32.692-12.828-32.692-28.692
		c0-31.864,28.83-33.382,44.555-33.382c19.864,0,42.21,7.725,42.21,33.105c-11.312,0-34.072,0-34.072,0
		c0-4.965-3.725-7.587-8.276-7.587c-4.276,0-7.035,1.518-7.035,5.242c0,4.829,10.207,6.897,19.449,9.104
		c9.242,2.207,32.83,4.69,32.83,28.278c0,27.587-19.45,33.657-44.417,33.657C12.478,356.188-0.212,336.6-0.212,321.013z"/>
	<path fill="#0066FF" d="M195.246,289.838h-29.933v63.729H128.62v-63.729H98.687v-32.83h96.559V289.838z"/>
	<path fill="#0066FF" d="M263.797,338.255h-26.208l-3.587,15.312H194.55l28.968-96.559h54.348l28.968,96.559h-39.451
		L263.797,338.255z M257.176,309.426l-4.553-19.588h-3.862l-4.552,19.588H257.176z"/>
	<path fill="#0066FF" d="M399.939,289.838h-29.934v63.729h-36.691v-63.729h-29.934v-32.83h96.559V289.838z"/>
	<path fill="#0066FF" d="M406.832,321.013c9.932,0,34.761,0,34.761,0c0,6.483,6.069,8.552,10.897,8.552
		c5.104,0,7.587-1.655,7.587-4.689c0-4.553-6.069-5.38-16.829-8.414c-22.761-6.346-32.691-12.828-32.691-28.692
		c0-31.864,28.829-33.382,44.555-33.382c19.863,0,42.21,7.725,42.21,33.105c-11.311,0-34.071,0-34.071,0
		c0-4.965-3.725-7.587-8.277-7.587c-4.275,0-7.034,1.518-7.034,5.242c0,4.829,10.207,6.897,19.449,9.104s32.83,4.69,32.83,28.278
		c0,27.587-19.449,33.657-44.417,33.657C419.522,356.188,406.832,336.6,406.832,321.013z"/>
</g>
<line fill="none" stroke="#0066FF" stroke-width="20" stroke-miterlimit="10" x1="0" y1="411" x2="500" y2="411"/>
</svg>
